<?xml version="1.0" standalone="no"?><!-- Generator: Gravit.io --><svg xmlns="http://www.w3.org/2000/svg" xmlns:xlink="http://www.w3.org/1999/xlink" style="isolation:isolate" viewBox="0 0 256 256" width="256" height="256"><g opacity="0.04"><path d=" M 128.009 222.996 C 81.776 222.996 44.217 229.865 44.217 238.32 C 44.217 246.775 81.776 253.644 128.009 253.644 C 174.242 253.644 211.801 246.775 211.801 238.32 C 211.801 229.865 174.242 222.996 128.009 222.996 Z " fill="rgb(0,0,0)"/></g><radialGradient id="_rgradient_7" fx="397.2%" fy="844.9999999999999%" cx="397.2%" cy="844.9999999999999%" r="2000%" gradientTransform="matrix(0 0.0609471186440678 -0.06447491525423729 0 1.002234375 -0.313515625)"><stop offset="0%" style="stop-color:rgb(127,217,85)"/><stop offset="26.200000000000003%" style="stop-color:rgb(36,204,44)"/><stop offset="70.5%" style="stop-color:rgb(42,149,58)"/><stop offset="100%" style="stop-color:rgb(14,119,12)"/></radialGradient><path d=" M 128 14 C 65.047 14 13.906 65.141 13.906 128.094 C 13.906 191.046 65.047 242.187 128 242.187 C 190.953 242.187 242.094 191.046 242.094 128.094 C 242.094 65.141 190.953 14 128 14 Z " fill="url(#_rgradient_7)"/><g opacity="0.5"><path d=" M 128 14 C 65.047 14 13.906 65.141 13.906 128.094 C 13.906 191.046 65.047 242.187 128 242.187 C 190.953 242.187 242.094 191.046 242.094 128.094 C 242.094 65.141 190.953 14 128 14 Z " fill="none" vector-effect="non-scaling-stroke" stroke-width="3.868" stroke="rgb(31,128,42)" stroke-linejoin="round" stroke-linecap="round" stroke-miterlimit="4"/></g><g opacity="0.5"><linearGradient id="_lgradient_8" x1="46.03061663157896%" y1="-1.0198859122807151%" x2="46.030616631578944%" y2="101.55425880701753%"><stop offset="0%" stop-opacity="1" style="stop-color:rgb(255,255,255)"/><stop offset="42.4%" stop-opacity="0.235" style="stop-color:rgb(255,255,255)"/><stop offset="82.1%" stop-opacity="0.157" style="stop-color:rgb(255,255,255)"/><stop offset="100%" stop-opacity="0.392" style="stop-color:rgb(255,255,255)"/></linearGradient><path d=" M 238.226 128.094 C 238.226 188.97 188.876 238.32 128 238.32 C 67.124 238.32 17.774 188.97 17.774 128.094 C 17.774 67.218 67.124 17.868 128 17.868 C 188.876 17.868 238.226 67.218 238.226 128.094 Z " fill="none" vector-effect="non-scaling-stroke" stroke-width="3.868" stroke="url(#_lgradient_8)" stroke-linejoin="round" stroke-linecap="round" stroke-miterlimit="4"/></g><g opacity="0.07"><path d=" M 196.228 60.444 C 187.705 51.922 177.779 45.232 166.721 40.552 C 155.273 35.715 143.123 33.258 130.583 33.258 C 118.063 33.278 105.913 35.715 94.465 40.571 C 83.407 45.252 73.48 51.941 64.958 60.464 C 56.435 68.986 49.746 78.913 45.066 89.971 C 40.229 101.419 37.772 113.569 37.772 126.109 C 37.772 138.629 40.229 150.798 45.066 162.246 C 49.746 173.304 56.435 183.231 64.958 191.753 C 73.48 200.276 83.407 206.965 94.465 211.646 C 105.913 216.482 118.063 218.94 130.603 218.94 C 143.123 218.94 155.293 216.482 166.741 211.646 C 177.798 206.965 187.725 200.276 196.248 191.753 C 204.77 183.231 211.46 173.304 216.14 162.246 C 220.977 150.798 223.434 138.649 223.434 126.109 C 223.434 113.588 220.976 101.419 216.14 89.971 C 211.44 78.893 204.751 68.986 196.228 60.444 Z  M 79.214 54.223 C 80.053 53.579 80.872 52.897 81.73 52.292 C 86.235 49.133 91.228 46.578 96.298 44.452 C 107.102 39.928 118.843 37.549 130.583 37.549 C 138.404 37.549 146.419 38.602 153.966 40.669 C 150.982 41.878 147.336 44.179 141.212 49.406 C 136.122 48.86 130.973 48.84 125.805 49.328 C 119.057 49.971 112.271 51.473 105.64 53.813 C 99.653 55.92 94.914 58.318 91.715 60.152 C 86.82 58.396 80.501 56.329 77.381 55.315 C 77.868 55.471 78.883 54.477 79.214 54.223 Z  M 163.776 77.431 L 147.901 120.765 L 109.813 128.078 L 78.337 95.568 C 80.462 80.824 90.564 67.758 90.564 67.758 C 90.623 67.719 97.215 62.96 107.785 59.274 C 113.948 57.109 120.228 55.725 126.488 55.14 C 131.597 54.672 136.687 54.75 141.719 55.354 L 163.776 77.431 Z  M 45.436 123.008 C 44.461 129.307 44.246 135.84 44.754 142.412 C 43.993 140.891 43.388 139.605 42.94 138.571 C 42.355 134.495 42.062 130.321 42.062 126.07 C 42.062 113.003 44.89 100.58 49.98 89.405 C 49.415 95.256 49.688 101.321 50.097 105.924 C 47.913 111.404 46.353 117.118 45.436 123.008 Z  M 53.14 156.766 C 52.242 153.47 51.189 148.673 50.663 142.92 C 50.078 136.425 50.253 129.97 51.228 123.788 C 51.969 119.049 53.159 114.446 54.797 110.019 C 61.214 104.597 69.717 101.419 74.417 99.956 L 105.308 131.862 L 102.071 166.829 L 71.881 176.912 C 64.197 171.256 57.918 163.767 53.14 156.766 Z  M 144.878 207.394 C 138.15 211.802 121.144 212.855 114.24 213.108 C 106.634 211.685 99.243 209.247 92.281 205.892 C 86.196 202.967 80.423 199.34 75.157 195.088 C 75.255 194.913 74.338 185.61 74.377 182.217 L 104.879 172.036 L 140.081 187.268 L 144.937 207.336 C 144.898 207.375 144.878 207.394 144.878 207.394 Z  M 203.366 176.522 C 198.12 184.089 191.84 191.129 184.293 196.473 C 177.213 201.465 167.735 203.182 159.31 204.566 C 158.667 204.664 150.612 205.99 150.554 205.717 L 145.698 185.63 L 170.485 159.828 L 203.307 156.805 C 203.815 162.032 204.477 169.657 204.868 174.318 C 204.36 175.059 203.873 175.8 203.366 176.522 Z  M 203.873 150.272 C 203.756 150.467 203.639 150.681 203.522 150.916 L 170.836 153.919 L 153.245 123.144 L 169.159 79.713 L 191.625 81.136 C 196.404 85.134 200.636 89.581 204.224 94.378 C 208.709 100.404 212.2 107.016 214.58 114.017 C 212.083 135.704 206.33 146.508 203.873 150.272 Z  M 215.594 101.477 C 213.663 97.752 211.401 94.164 208.846 90.751 C 204.809 85.349 200.011 80.376 194.57 75.949 C 193.576 71.014 190.845 63.253 183.513 55.101 C 183.649 55.198 183.786 55.315 183.922 55.413 C 184.371 55.744 184.8 56.095 185.248 56.427 C 190.3 60.405 194.902 64.91 198.978 69.864 C 206.545 79.088 212.259 89.795 215.614 101.282 C 215.594 101.36 215.594 101.419 215.594 101.477 Z " fill="rgb(0,0,0)"/></g><path d=" M 193.634 60.444 C 185.112 51.922 175.185 45.232 164.127 40.552 C 152.679 35.715 140.529 33.258 127.989 33.258 C 115.469 33.278 103.319 35.715 91.871 40.571 C 80.813 45.252 70.887 51.941 62.364 60.464 C 53.842 68.986 47.152 78.913 42.472 89.971 C 37.635 101.419 35.178 113.569 35.178 126.109 C 35.178 138.629 37.635 150.798 42.472 162.246 C 47.152 173.304 53.842 183.231 62.364 191.753 C 70.887 200.276 80.813 206.965 91.871 211.646 C 103.319 216.482 115.469 218.94 128.009 218.94 C 140.529 218.94 152.699 216.482 164.147 211.646 C 175.205 206.965 185.131 200.276 193.654 191.753 C 202.176 183.231 208.866 173.304 213.546 162.246 C 218.383 150.798 220.84 138.649 220.84 126.109 C 220.84 113.588 218.383 101.419 213.546 89.971 C 208.846 78.893 202.157 68.986 193.634 60.444 Z  M 76.62 54.223 C 77.459 53.579 78.278 52.897 79.136 52.292 C 83.641 49.133 88.634 46.578 93.704 44.452 C 104.509 39.928 116.249 37.549 127.989 37.549 C 135.81 37.549 143.825 38.602 151.373 40.669 C 148.389 41.878 144.742 44.179 138.618 49.406 C 133.528 48.86 128.38 48.84 123.211 49.328 C 116.463 49.971 109.677 51.473 103.046 53.813 C 97.059 55.92 92.32 58.318 89.121 60.152 C 84.226 58.396 77.908 56.329 74.787 55.315 C 75.275 55.471 76.289 54.477 76.62 54.223 Z  M 161.182 77.431 L 145.308 120.765 L 107.22 128.078 L 75.743 95.568 C 77.869 80.824 87.971 67.758 87.971 67.758 C 88.029 67.719 94.621 62.96 105.191 59.274 C 111.354 57.109 117.634 55.725 123.894 55.14 C 129.004 54.672 134.094 54.75 139.125 55.354 L 161.182 77.431 Z  M 42.842 123.008 C 41.867 129.307 41.653 135.84 42.16 142.412 C 41.399 140.891 40.795 139.605 40.346 138.571 C 39.761 134.495 39.468 130.321 39.468 126.07 C 39.468 113.003 42.296 100.58 47.386 89.405 C 46.821 95.256 47.094 101.321 47.503 105.924 C 45.319 111.404 43.759 117.118 42.842 123.008 Z  M 50.546 156.766 C 49.649 153.47 48.596 148.673 48.069 142.92 C 47.484 136.425 47.659 129.97 48.635 123.788 C 49.376 119.049 50.565 114.446 52.203 110.019 C 58.62 104.597 67.123 101.419 71.823 99.956 L 102.714 131.862 L 99.477 166.829 L 69.288 176.912 C 61.604 171.256 55.324 163.767 50.546 156.766 Z  M 142.285 207.394 C 135.556 211.802 118.55 212.855 111.647 213.108 C 104.041 211.685 96.649 209.247 89.687 205.892 C 83.602 202.967 77.829 199.339 72.564 195.088 C 72.661 194.913 71.745 185.61 71.784 182.217 L 102.285 172.036 L 137.487 187.268 L 142.343 207.336 C 142.304 207.375 142.285 207.394 142.285 207.394 Z  M 200.772 176.522 C 195.526 184.089 189.246 191.129 181.699 196.473 C 174.619 201.465 165.142 203.182 156.716 204.566 C 156.073 204.664 148.018 205.99 147.96 205.717 L 143.104 185.63 L 167.891 159.828 L 200.714 156.805 C 201.221 162.032 201.884 169.657 202.274 174.318 C 201.767 175.059 201.279 175.8 200.772 176.522 Z  M 201.279 150.272 C 201.162 150.467 201.045 150.681 200.928 150.916 L 168.242 153.919 L 150.651 123.144 L 166.565 79.713 L 189.032 81.136 C 193.81 85.134 198.042 89.581 201.63 94.378 C 206.116 100.404 209.607 107.016 211.986 114.017 C 209.49 135.704 203.736 146.508 201.279 150.272 Z  M 213 101.477 C 211.07 97.752 208.807 94.164 206.252 90.751 C 202.215 85.349 197.418 80.376 191.977 75.949 C 190.982 71.014 188.252 63.253 180.919 55.101 C 181.055 55.198 181.192 55.315 181.328 55.413 C 181.777 55.744 182.206 56.095 182.655 56.427 C 187.706 60.405 192.308 64.91 196.384 69.864 C 203.951 79.088 209.665 89.795 213.02 101.282 C 213 101.36 213 101.419 213 101.477 Z " fill="rgb(255,255,255)"/></svg>